Coordinates
version=1
nRows=4
nColumns=107
inDegrees=yes

Units are S.I. units (second, meters, Newtons, ...)
If the header above contains a line with 'inDegrees', this indicates whether rotational values are in degrees (yes) or radians (no).

endheader
time	sternoclavicular_r2	sternoclavicular_r3	unrotscap_r3	unrotscap_r2	acromioclavicular_r2	acromioclavicular_r3	acromioclavicular_r1	unrothum_r1	unrothum_r3	unrothum_r2	elv_angle	shoulder_elv	shoulder1_r2	shoulder_rot	elbow_flexion	pro_sup	deviation	flexion	proximal_distal_r1	proximal_distal_r3	cmc_flexion	cmc_abduction	mp_flexion	ip_flexion	mcp2_flexion	mcp2_abduction	pm2_flexion	md2_flexion	mcp3_flexion	mcp3_abduction	pm3_flexion	md3_flexion	mcp4_flexion	mcp4_abduction	pm4_flexion	md4_flexion	mcp5_flexion	mcp5_abduction	pm5_flexion	md5_flexion	bicpt_tx	bicpt_ty	bicpt_tz	bicpt2_tx	bicpt2_ty	bicpt2_tz	ptpt_tx	ptpt_ty	ptpt_tz	FCUpt_tx	FCUpt_ty	FCUpt_tz	EDCpt_tx	EDCpt_ty	EDCpt_tz	APLpt_tx	APLpt_ty	APLpt_tz	FPLpt_tx	FPLpt_ty	FPLpt_tz	FPLpt2_tx	FPLpt2_ty	FPLpt2_tz	PEC1pt2_tx	PEC1pt2_ty	PEC1pt2_tz	PEC1pt3_tx	PEC1pt3_ty	PEC1pt3_tz	PEC2pt2_tx	PEC2pt2_ty	PEC2pt2_tz	PEC2pt3_tx	PEC2pt3_ty	PEC2pt3_tz	PEC3pt2_tx	PEC3pt2_ty	PEC3pt2_tz	PEC3pt3_tx	PEC3pt3_ty	PEC3pt3_tz	DELT2pt2a_tx	DELT2pt2a_ty	DELT2pt2a_tz	DELT2pt2_tx	DELT2pt2_ty	DELT2pt2_tz	LAT1pt2_tx	LAT1pt2_ty	LAT1pt2_tz	LAT1pt3_tx	LAT1pt3_ty	LAT1pt3_tz	LAT2pt2_tx	LAT2pt2_ty	LAT2pt2_tz	LAT2pt3_tx	LAT2pt3_ty	LAT2pt3_tz	LAT3pt2_tx	LAT3pt2_ty	LAT3pt2_tz	LAT3pt3_tx	LAT3pt3_ty	LAT3pt3_tz
      1.60000000	     -0.31946326	      0.13530956	     -0.13530956	      0.31946326	     -0.06468481	      0.52275989	      0.23497697	     -0.23497697	     -0.52275989	      0.06468481	     99.44469527	     75.63576582	     -1.73563736	    -25.14760821	     28.66042619	     10.24281156	      0.09596959	     -0.43055266	      0.12270597	     -0.21527633	     28.26910031	     -9.15082945	    -16.83126461	    -11.12584822	    -10.00316067	     11.83301560	     32.00358220	     11.34570137	    -13.50959701	      0.87471724	     19.31511280	     20.03588363	     -7.95044567	      0.89924194	      6.09064383	     25.32179745	      9.21141286	    -13.88833883	     -7.06383819	      5.15913919	      0.00084800	     -0.03088492	     -0.00482912	      0.01550598	     -0.01798575	     -0.01002592	      0.00679317	     -0.06538938	     -0.00087511	      0.00492096	     -0.18398837	      0.00015823	     -0.00122913	      0.00030639	      0.00012010	      0.00028527	      0.00011411	      0.00057055	      0.00036515	      0.00109545	      0.00061619	     -0.00000593	     -0.00026277	     -0.00031532	      0.00247917	      0.00869812	      0.00605087	     -0.00810984	      0.01958128	     -0.01857280	      0.00247917	      0.00869812	      0.00605087	      0.00054626	      0.01815260	     -0.00953852	      0.00392778	      0.00483691	      0.01591815	      0.00000000	      0.00765000	      0.00000000	     -0.00710136	     -0.03281755	     -0.00630704	      0.01656963	     -0.00059505	     -0.00528601	     -0.00088242	      0.01479101	     -0.00605087	      0.00243715	      0.02134611	     -0.01764836	     -0.00592481	      0.01281607	     -0.00542057	     -0.01235385	      0.02706082	     -0.03029635	     -0.02319499	      0.01432879	     -0.00726944	     -0.01537929	      0.03126281	     -0.03785993
      1.63333333	     -0.32136545	      0.13611524	     -0.13611524	      0.32136545	     -0.06506997	      0.52587258	      0.23637610	     -0.23637610	     -0.52587258	      0.06506997	     99.07717199	     76.08612629	     -1.72922286	    -22.88484257	     28.72213804	     13.96223466	      0.17291139	     -0.39069535	      0.21019389	     -0.19534768	     30.57315110	    -10.39368208	    -19.77948199	     -8.29507393	     -7.48097537	     11.72411476	     31.88090074	     11.37728753	     -8.08492097	      0.60610475	     18.69202155	     17.95043429	     -1.99112899	      0.41527242	      7.43679734	     22.45622340	     15.30788213	    -13.93248277	     -6.02116730	      5.07135695	      0.00085004	     -0.03089200	     -0.00483025	      0.01575026	     -0.01800251	     -0.00977432	      0.00651835	     -0.06556708	     -0.00117473	      0.00526341	     -0.18394046	      0.00005370	     -0.00167546	      0.00042568	      0.00014962	      0.00027191	      0.00010876	      0.00054382	      0.00034804	      0.00104413	      0.00058732	     -0.00000929	     -0.00024504	     -0.00029405	      0.00249394	      0.00874991	      0.00608690	     -0.00815813	      0.01969787	     -0.01868339	      0.00249394	      0.00874991	      0.00608690	      0.00054951	      0.01826069	     -0.00959531	      0.00394488	      0.00486571	      0.01596015	      0.00000000	      0.00774201	      0.00000000	     -0.00714365	     -0.03301295	     -0.00638343	      0.01538531	     -0.00052215	     -0.00436391	     -0.00088767	      0.01487908	     -0.00608690	      0.00245167	      0.02147321	     -0.01775344	     -0.00596008	      0.01289238	     -0.00545284	     -0.01242741	      0.02722195	     -0.03047675	     -0.02333310	      0.01441411	     -0.00731273	     -0.01547086	      0.03144896	     -0.03808537
      1.66666667	     -0.32210533	      0.13642862	     -0.13642862	      0.32210533	     -0.06521978	      0.52708330	      0.23692031	     -0.23692031	     -0.52708330	      0.06521978	     98.92579270	     76.26129996	     -1.72658080	    -22.11198624	     28.71088615	     15.41358738	      0.19112778	     -0.38145452	      0.22948789	     -0.19072726	     29.80865606	     -9.96515101	    -20.03409604	     -7.74918425	     -6.37937797	     11.56971973	     32.32827849	     11.53901580	     -6.76492722	      0.63327872	     19.41263281	     18.15711649	     -1.02712816	      0.30808197	      8.21455128	     22.55139496	     15.60575481	    -13.94576886	     -5.69380074	      5.10065989	      0.00084967	     -0.03089071	     -0.00483005	      0.01583702	     -0.01799945	     -0.00967089	      0.00641111	     -0.06563643	     -0.00129165	      0.00539819	     -0.18392070	      0.00001573	     -0.00184963	      0.00047338	      0.00015912	      0.00026843	      0.00010737	      0.00053686	      0.00034359	      0.00103077	      0.00057981	     -0.00000828	     -0.00025157	     -0.00030189	      0.00249968	      0.00877006	      0.00610091	     -0.00817691	      0.01974322	     -0.01872640	      0.00249968	      0.00877006	      0.00610091	      0.00055078	      0.01830273	     -0.00961741	      0.00395151	      0.00487692	      0.01597636	      0.00000000	      0.00777795	      0.00000000	     -0.00716009	     -0.03308896	     -0.00641327	      0.01496515	     -0.00049767	     -0.00406600	     -0.00088972	      0.01491333	     -0.00610091	      0.00245731	      0.02152265	     -0.01779432	     -0.00597381	      0.01292206	     -0.00546540	     -0.01245602	      0.02728462	     -0.03054691	     -0.02338682	      0.01444729	     -0.00732956	     -0.01550648	      0.03152136	     -0.03817305
      1.70000000	     -0.32257557	      0.13662779	     -0.13662779	      0.32257557	     -0.06531499	      0.52785279	      0.23726619	     -0.23726619	     -0.52785279	      0.06531499	     98.82720308	     76.37263379	     -1.72486008	    -21.77986890	     28.83582101	     17.97051441	      0.22529678	     -0.32979200	      0.26421314	     -0.16489600	     29.96971673	     -9.86757218	    -21.09385718	     -6.69976209	     -5.44505539	     11.41865263	     32.07212788	     11.35303386	     -5.17631519	      0.67898920	     19.24039334	     18.10645827	     -0.04978332	      0.30780039	      8.45780586	     21.95969969	     16.40789811	    -13.93365988	     -5.38456370	      5.09141090	      0.00085380	     -0.03090503	     -0.00483235	      0.01597813	     -0.01803339	     -0.00948149	      0.00622218	     -0.06575859	     -0.00149762	      0.00563723	     -0.18388443	     -0.00004730	     -0.00215646	      0.00055900	      0.00017306	      0.00024634	      0.00009854	      0.00049268	      0.00031531	      0.00094594	      0.00053209	     -0.00000850	     -0.00025025	     -0.00030030	      0.00250333	      0.00878286	      0.00610982	     -0.00818885	      0.01977204	     -0.01875374	      0.00250333	      0.00878286	      0.00610982	      0.00055158	      0.01832945	     -0.00963145	      0.00395572	      0.00488404	      0.01598662	      0.00000000	      0.00780084	      0.00000000	     -0.00717055	     -0.03313727	     -0.00643227	      0.01478215	     -0.00048722	     -0.00394073	     -0.00089101	      0.01493511	     -0.00610982	      0.00246090	      0.02155407	     -0.01782030	     -0.00598253	      0.01294093	     -0.00547338	     -0.01247421	      0.02732445	     -0.03059151	     -0.02342096	      0.01446838	     -0.00734026	     -0.01552912	      0.03156738	     -0.03822878
